# xmcd
#
# Track frame offsets:
#	150
#	22273
#	40915
#	59863
#	83249
#	102969
#	121158
#	141169
#	158816
#	181513
#	201416
#	221138
#	237824
#	257146
#	277464
#
# Disc length: 3931 seconds
#
# Revision: 1
# Processed by: cddbd v1.5.2PL0 Copyright (c) Steve Scherf et al.
# Submitted via: EZCDAudioConverter 3.0.3.2
#
DISCID=e70f590f
DTITLE=陳明真 - 變心的翅膀精選 CD1
DYEAR=2001
DGENRE=Pop
TTITLE0=我用自己的方式愛你
TTITLE1=寶貝我的心
TTITLE2=背心
TTITLE3=念念不忘的情人
TTITLE4=變心的翅膀
TTITLE5=我不是輕易放下感情的人
TTITLE6=百萬個吻
TTITLE7=再見不是最傷感的話
TTITLE8=讓步
TTITLE9=雨過天晴
TTITLE10=執著
TTITLE11=昨天以前
TTITLE12=愛一個人等於愛上孤獨
TTITLE13=一個人撐傘
TTITLE14=親愛的你是否正在想著我
EXTD=
EXTT0=
EXTT1=
EXTT2=
EXTT3=
EXTT4=
EXTT5=
EXTT6=
EXTT7=
EXTT8=
EXTT9=
EXTT10=
EXTT11=
EXTT12=
EXTT13=
EXTT14=
PLAYORDER=
